<?xml version="1.0" encoding="UTF-8"?> <svg xmlns="http://www.w3.org/2000/svg" width="346" height="165" viewBox="0 0 346 165" fill="none"><mask id="path-1-inside-1_1_12835" fill="white"><path d="M104 484C151.863 484 198.651 469.807 238.448 443.216C278.245 416.624 309.262 378.829 327.579 334.609C345.895 290.39 350.688 241.732 341.35 194.788C332.012 147.845 308.964 104.724 275.12 70.8801C241.276 37.0358 198.155 13.9876 151.212 4.64996C104.268 -4.68766 55.6103 0.104752 11.3906 18.4212C-32.8291 36.7376 -70.6244 67.7553 -97.2157 107.552C-123.807 147.349 -138 194.137 -138 242L104 242L104 484Z"></path></mask><path d="M104 484C151.863 484 198.651 469.807 238.448 443.216C278.245 416.624 309.262 378.829 327.579 334.609C345.895 290.39 350.688 241.732 341.35 194.788C332.012 147.845 308.964 104.724 275.12 70.8801C241.276 37.0358 198.155 13.9876 151.212 4.64996C104.268 -4.68766 55.6103 0.104752 11.3906 18.4212C-32.8291 36.7376 -70.6244 67.7553 -97.2157 107.552C-123.807 147.349 -138 194.137 -138 242L104 242L104 484Z" stroke="#0454DB" stroke-width="6" mask="url(#path-1-inside-1_1_12835)"></path></svg> 