<?xml version="1.0" encoding="UTF-8"?> <svg xmlns="http://www.w3.org/2000/svg" width="145" height="145" viewBox="0 0 145 145" fill="none"><path d="M72.4879 12.0833C54.3146 12.0833 42.5334 24.2815 28.6013 28.7281C22.9342 30.5406 20.1007 31.4408 18.9527 32.7156C17.8048 33.9844 17.4725 35.8513 16.8019 39.5729C9.61232 79.4238 25.3206 116.266 62.779 130.609C66.7967 132.149 68.8086 132.917 72.5061 132.917C76.2036 132.917 78.2215 132.143 82.2452 130.603C119.698 116.266 135.388 79.4238 128.198 39.5729C127.528 35.8513 127.189 33.9844 126.041 32.7096C124.893 31.4348 122.066 30.5346 116.399 28.7281C102.461 24.2815 90.6613 12.0833 72.4879 12.0833Z" stroke="#287CD8" stroke-width="8.92" stroke-linecap="round" stroke-linejoin="round"></path><path d="M54.375 78.5417C54.375 78.5417 60.4167 78.5417 66.4583 90.625C66.4583 90.625 85.6527 60.4167 102.708 54.375" stroke="#287CD8" stroke-width="8.92" stroke-linecap="round" stroke-linejoin="round"></path></svg> 