<svg width="145" height="145" viewBox="0 0 145 145" fill="none" xmlns="http://www.w3.org/2000/svg">
<path d="M24.9219 104.219L9.0625 135.938H40.7812L24.9219 104.219ZM117.812 67.9688V77.0312C122.81 77.0312 126.875 81.1003 126.875 86.0938V108.75C126.875 113.748 122.81 117.812 117.812 117.812H45.3125V126.875H117.812C127.808 126.875 135.938 118.746 135.938 108.75V86.0938C135.938 76.0978 127.808 67.9688 117.812 67.9688Z" fill="#287CD8"/>
<path d="M63.4375 108.75C62.4534 108.75 61.4962 108.429 60.7105 107.836C59.9249 107.243 59.3536 106.411 59.083 105.465L50.9584 77.0313H36.25V67.9688H54.375C55.3591 67.9692 56.3163 68.29 57.102 68.8827C57.8876 69.4754 58.4589 70.3077 58.7295 71.2539L63.4375 87.725L77.208 39.5352C77.4799 38.5903 78.0517 37.7595 78.8372 37.1682C79.6227 36.5768 80.5793 36.257 81.5625 36.257C82.5457 36.257 83.5023 36.5768 84.2878 37.1682C85.0733 37.7595 85.6451 38.5903 85.917 39.5352L94.0416 67.9688H108.75V77.0313H90.625C89.6409 77.0308 88.6837 76.71 87.898 76.1173C87.1124 75.5246 86.5411 74.6923 86.2705 73.7461L81.5625 57.275L67.792 105.465C67.5214 106.411 66.9501 107.243 66.1645 107.836C65.3788 108.429 64.4216 108.75 63.4375 108.75Z" fill="#287CD8"/>
<path d="M18.125 58.9062V36.25C18.125 31.252 22.1895 27.1875 27.1875 27.1875H99.6875V18.125H27.1875C17.1916 18.125 9.0625 26.2541 9.0625 36.25V58.9062C9.0625 68.9022 17.1916 77.0312 27.1875 77.0312V67.9688C22.1895 67.9688 18.125 63.9042 18.125 58.9062Z" fill="#287CD8"/>
<path d="M122.344 36.25C129.851 36.25 135.938 30.1639 135.938 22.6562C135.938 15.1486 129.851 9.0625 122.344 9.0625C114.836 9.0625 108.75 15.1486 108.75 22.6562C108.75 30.1639 114.836 36.25 122.344 36.25Z" fill="#287CD8"/>
</svg>
