<svg width="143" height="66" viewBox="0 0 143 66" fill="none" xmlns="http://www.w3.org/2000/svg">
<mask id="path-1-inside-1_1_12834" fill="white">
<path d="M6.25073e-06 286C18.779 286 37.3742 282.301 54.7237 275.115C72.0733 267.928 87.8375 257.395 101.116 244.116C114.395 230.837 124.928 215.073 132.115 197.724C139.301 180.374 143 161.779 143 143C143 124.221 139.301 105.626 132.115 88.2762C124.928 70.9267 114.395 55.1625 101.116 41.8837C87.8374 28.6049 72.0732 18.0716 54.7237 10.8852C37.3741 3.69879 18.779 -9.17846e-06 -6.9893e-05 0L0 143L6.25073e-06 286Z"/>
</mask>
<path d="M6.25073e-06 286C18.779 286 37.3742 282.301 54.7237 275.115C72.0733 267.928 87.8375 257.395 101.116 244.116C114.395 230.837 124.928 215.073 132.115 197.724C139.301 180.374 143 161.779 143 143C143 124.221 139.301 105.626 132.115 88.2762C124.928 70.9267 114.395 55.1625 101.116 41.8837C87.8374 28.6049 72.0732 18.0716 54.7237 10.8852C37.3741 3.69879 18.779 -9.17846e-06 -6.9893e-05 0L0 143L6.25073e-06 286Z" stroke="#0048C1" stroke-width="10" mask="url(#path-1-inside-1_1_12834)"/>
</svg>
