<svg width="145" height="145" viewBox="0 0 145 145" fill="none" xmlns="http://www.w3.org/2000/svg">
<path d="M31.7188 24.1667C26.5112 24.1667 21.5168 26.2354 17.8345 29.9178C14.1521 33.6001 12.0834 38.5945 12.0834 43.8021V101.198C12.0834 106.406 14.1521 111.4 17.8345 115.082C21.5168 118.765 26.5112 120.833 31.7188 120.833H113.281C115.86 120.833 118.413 120.325 120.795 119.339C123.178 118.352 125.342 116.906 127.166 115.082C128.989 113.259 130.435 111.094 131.422 108.712C132.409 106.33 132.917 103.776 132.917 101.198V43.8021C132.917 41.2235 132.409 38.6702 131.422 36.2879C130.435 33.9057 128.989 31.7411 127.166 29.9178C125.342 28.0944 123.178 26.6481 120.795 25.6613C118.413 24.6746 115.86 24.1667 113.281 24.1667H31.7188ZM21.1459 43.8021C21.1459 37.9658 25.8825 33.2292 31.7188 33.2292H113.281C119.118 33.2292 123.854 37.9658 123.854 43.8021V101.198C123.854 104.002 122.74 106.691 120.757 108.674C118.775 110.657 116.085 111.771 113.281 111.771H31.7188C28.9147 111.771 26.2254 110.657 24.2426 108.674C22.2598 106.691 21.1459 104.002 21.1459 101.198V43.8021ZM30.2084 46.8229C30.2084 45.6212 30.6858 44.4686 31.5355 43.6188C32.3853 42.7691 33.5379 42.2917 34.7396 42.2917H67.9688C69.1706 42.2917 70.3231 42.7691 71.1729 43.6188C72.0226 44.4686 72.5 45.6212 72.5 46.8229C72.5 48.0247 72.0226 49.1772 71.1729 50.027C70.3231 50.8768 69.1706 51.3542 67.9688 51.3542H34.7396C33.5379 51.3542 32.3853 50.8768 31.5355 50.027C30.6858 49.1772 30.2084 48.0247 30.2084 46.8229ZM36.25 78.5417C34.6477 78.5417 33.111 79.1782 31.9779 80.3112C30.8449 81.4443 30.2084 82.981 30.2084 84.5833V96.6667C30.2084 98.269 30.8449 99.8057 31.9779 100.939C33.111 102.072 34.6477 102.708 36.25 102.708H78.5417C80.1441 102.708 81.6808 102.072 82.8138 100.939C83.9468 99.8057 84.5834 98.269 84.5834 96.6667V84.5833C84.5834 82.981 83.9468 81.4443 82.8138 80.3112C81.6808 79.1782 80.1441 78.5417 78.5417 78.5417H36.25ZM30.2084 61.9271C30.2084 60.7253 30.6858 59.5728 31.5355 58.723C32.3853 57.8732 33.5379 57.3958 34.7396 57.3958H98.1771C99.3789 57.3958 100.531 57.8732 101.381 58.723C102.231 59.5728 102.708 60.7253 102.708 61.9271C102.708 63.1288 102.231 64.2814 101.381 65.1312C100.531 65.9809 99.3789 66.4583 98.1771 66.4583H34.7396C33.5379 66.4583 32.3853 65.9809 31.5355 65.1312C30.6858 64.2814 30.2084 63.1288 30.2084 61.9271Z" fill="#287CD8"/>
</svg>
